<?xml version="1.0" standalone="no"?>
<!DOCTYPE svg PUBLIC "-//W3C//DTD SVG 20010904//EN"
 "http://www.w3.org/TR/2001/REC-SVG-20010904/DTD/svg10.dtd">
<svg version="1.0" xmlns="http://www.w3.org/2000/svg"
 width="147.000000pt" height="28.000000pt" viewBox="0 0 147.000000 28.000000"
 preserveAspectRatio="xMidYMid meet">

<g transform="translate(0.000000,28.000000) scale(0.100000,-0.100000)"
fill="#633aff" stroke="none">
<path d="M30 250 c-17 -17 -20 -33 -20 -110 0 -122 8 -130 130 -130 77 0 93 3
110 20 17 17 20 33 20 110 0 77 -3 93 -20 110 -17 17 -33 20 -110 20 -77 0
-93 -3 -110 -20z m121 -52 c43 16 89 -14 89 -58 0 -39 -55 -81 -77 -59 -7 7
-19 6 -37 -2 -23 -11 -30 -10 -54 8 -30 22 -40 66 -21 90 18 21 52 33 65 22 7
-6 21 -6 35 -1z"/>
<path d="M92 174 c-31 -21 -29 -62 3 -70 27 -7 55 10 55 32 0 8 5 14 11 14 7
0 9 -10 7 -25 -6 -27 10 -33 30 -13 17 17 15 43 -3 58 -19 16 -65 -2 -65 -25
0 -8 -5 -15 -11 -15 -7 0 -9 11 -5 30 6 35 7 35 -22 14z"/>
<path d="M920 230 c0 -15 7 -20 25 -20 18 0 25 5 25 20 0 15 -7 20 -25 20 -18
0 -25 -5 -25 -20z"/>
<path d="M470 206 c0 -34 0 -34 -31 -23 -28 11 -33 10 -55 -16 -27 -31 -30
-54 -12 -92 13 -30 48 -41 77 -25 14 7 21 7 21 0 0 -5 9 -10 20 -10 19 0 20 7
20 100 0 93 -1 100 -20 100 -16 0 -20 -7 -20 -34z m0 -90 c0 -32 -26 -53 -48
-39 -40 24 -12 94 29 73 10 -6 19 -21 19 -34z"/>
<path d="M850 140 c0 -93 1 -100 20 -100 19 0 20 7 20 100 0 93 -1 100 -20
100 -19 0 -20 -7 -20 -100z"/>
<path d="M1170 140 c0 -93 1 -100 20 -100 16 0 20 7 20 33 l1 32 28 -33 c15
-17 35 -32 44 -32 21 0 22 14 1 30 -35 30 -37 50 -8 81 l28 29 -24 0 c-14 0
-34 -11 -47 -27 l-22 -28 -1 58 c0 50 -2 57 -20 57 -19 0 -20 -7 -20 -100z"/>
<path d="M573 178 c-33 -16 -48 -60 -31 -95 22 -46 106 -58 122 -18 4 12 -2
15 -36 13 -26 -2 -42 2 -45 10 -3 8 10 12 46 12 45 0 51 3 51 20 0 26 -43 70
-67 69 -10 0 -28 -5 -40 -11z m65 -35 c2 -9 -7 -13 -27 -13 -30 0 -39 9 -24
24 11 10 46 3 51 -11z"/>
<path d="M1065 180 c-3 -5 -19 -7 -35 -3 l-30 6 0 -72 c0 -64 2 -71 20 -71 17
0 20 7 20 49 0 52 16 76 44 65 12 -5 16 -19 16 -60 0 -47 2 -54 20 -54 18 0
20 7 20 59 0 51 -3 62 -22 75 -26 18 -44 20 -53 6z"/>
<path d="M1343 180 c-48 -19 -20 -80 36 -80 12 0 21 -7 21 -15 0 -18 -33 -20
-60 -3 -29 18 -39 -1 -11 -23 40 -33 111 -17 111 25 0 18 -30 42 -62 50 -45
10 -34 30 12 22 43 -7 54 6 21 24 -23 12 -38 12 -68 0z"/>
<path d="M696 158 c24 -78 43 -113 63 -116 11 -2 21 -1 21 2 0 3 11 35 25 71
l25 66 -22 -3 c-16 -2 -25 -13 -31 -40 -5 -21 -12 -38 -16 -38 -4 0 -14 18
-21 40 -9 28 -19 40 -32 40 -15 0 -18 -5 -12 -22z"/>
<path d="M925 113 c1 -56 4 -68 18 -71 15 -3 17 6 17 67 0 61 -2 71 -18 71
-15 0 -17 -9 -17 -67z"/>
</g>
</svg>
