<?xml version="1.0" standalone="no"?>
<!DOCTYPE svg PUBLIC "-//W3C//DTD SVG 20010904//EN"
 "http://www.w3.org/TR/2001/REC-SVG-20010904/DTD/svg10.dtd">
<svg version="1.0" xmlns="http://www.w3.org/2000/svg"
 width="29.000000pt" height="28.000000pt" viewBox="0 0 29.000000 28.000000"
 preserveAspectRatio="xMidYMid meet">

<g transform="translate(0.000000,28.000000) scale(0.100000,-0.100000)"
fill="#633aff" stroke="none">
<path d="M30 248 c-17 -18 -20 -35 -20 -110 0 -120 8 -128 130 -128 77 0 93 3
110 20 17 17 20 33 20 110 0 122 -8 130 -130 130 -79 0 -92 -3 -110 -22z m121
-50 c43 16 89 -14 89 -58 0 -39 -55 -81 -77 -59 -7 7 -19 6 -37 -2 -23 -11
-30 -10 -54 8 -30 22 -40 66 -21 90 18 21 52 33 65 22 7 -6 21 -6 35 -1z"/>
<path d="M92 174 c-31 -21 -29 -62 3 -70 27 -7 55 10 55 32 0 8 5 14 11 14 7
0 9 -10 7 -25 -6 -27 10 -33 30 -13 17 17 15 43 -3 58 -19 16 -65 -2 -65 -25
0 -8 -5 -15 -11 -15 -7 0 -9 11 -5 30 6 35 7 35 -22 14z"/>
</g>
</svg>
